<?xml version="1.0" encoding="UTF-8" standalone="no"?>
<!-- Created with Inkscape (http://www.inkscape.org/) -->

<svg
   xmlns:dc="http://purl.org/dc/elements/1.1/"
   xmlns:cc="http://creativecommons.org/ns#"
   xmlns:rdf="http://www.w3.org/1999/02/22-rdf-syntax-ns#"
   xmlns:svg="http://www.w3.org/2000/svg"
   xmlns="http://www.w3.org/2000/svg"
   xmlns:sodipodi="http://sodipodi.sourceforge.net/DTD/sodipodi-0.dtd"
   xmlns:inkscape="http://www.inkscape.org/namespaces/inkscape"
   width="1920"
   height="1080"
   viewBox="0 0 1920 1080"
   id="svg4167"
   version="1.1"
   inkscape:version="0.91 r13725"
   sodipodi:docname="logo.svg">
  <defs
     id="defs4169" />
  <sodipodi:namedview
     id="base"
     pagecolor="#ffffff"
     bordercolor="#666666"
     borderopacity="1.0"
     inkscape:pageopacity="0.0"
     inkscape:pageshadow="2"
     inkscape:zoom="0.98994949"
     inkscape:cx="867.4019"
     inkscape:cy="812.98837"
     inkscape:document-units="px"
     inkscape:current-layer="text3504"
     showgrid="false"
     units="px"
     inkscape:window-width="3369"
     inkscape:window-height="1529"
     inkscape:window-x="219"
     inkscape:window-y="154"
     inkscape:window-maximized="0" />
  <metadata
     id="metadata4172">
    <rdf:RDF>
      <cc:Work
         rdf:about="">
        <dc:format>image/svg+xml</dc:format>
        <dc:type
           rdf:resource="http://purl.org/dc/dcmitype/StillImage" />
        <dc:title />
      </cc:Work>
    </rdf:RDF>
  </metadata>
  <g
     inkscape:label="Layer 1"
     inkscape:groupmode="layer"
     id="layer1"
     transform="translate(0,27.637839)">
    <g
       id="g3706"
       transform="matrix(6.9246788,0,0,6.9246788,-865.26928,-1509.1236)">
      <g
         style="font-style:italic;font-variant:normal;font-weight:bold;font-stretch:normal;font-size:72px;line-height:125%;font-family:'Century Schoolbook L';-inkscape-font-specification:'Century Schoolbook L Bold Italic';letter-spacing:0px;word-spacing:0px;fill:#000000;fill-opacity:1;stroke:none"
         id="text3660">
        <path
           d="m 253.10857,238.95418 -1.008,3.456 c -1.728,-3.024 -4.752,-4.536 -9,-4.536 -10.656,0 -20.592,10.8 -20.592,22.464 0,7.632 5.184,13.032 12.456,13.032 4.968,0 8.28,-1.8 11.736,-6.264 0,1.584 0,1.728 0.216,2.304 0.648,2.376 3.024,4.032 5.904,4.032 3.6,0 6.84,-1.872 10.368,-5.832 1.944,-2.232 3.528,-4.464 4.752,-6.552 l -2.808,-1.8 c -2.664,4.176 -6.264,8.064 -7.488,8.064 -0.504,0 -1.008,-0.576 -1.008,-1.152 0,-0.504 0,-0.504 0.72,-3.312 l 7.056,-23.904 -11.304,0 z m -7.704,2.88 c 2.664,0 4.464,2.16 4.464,5.256 0,3.6 -1.584,9.648 -3.744,14.256 -2.088,4.608 -4.68,6.984 -7.488,6.984 -2.664,0 -4.392,-2.232 -4.392,-5.688 0,-3.816 1.44,-9.576 3.528,-13.896 2.232,-4.68 4.68,-6.912 7.632,-6.912 z"
           style=""
           id="path4148" />
      </g>
      <g
         transform="scale(-1,1)"
         style="font-style:italic;font-variant:normal;font-weight:bold;font-stretch:normal;font-size:72px;line-height:125%;font-family:'Century Schoolbook L';-inkscape-font-specification:'Century Schoolbook L Bold Italic';letter-spacing:0px;word-spacing:0px;fill:#000000;fill-opacity:1;stroke:none"
         id="text3660-7">
        <path
           d="m -277.98919,254.81026 -1.008,3.456 c -1.728,-3.024 -4.752,-4.536 -9,-4.536 -10.656,0 -20.592,10.8 -20.592,22.464 0,7.632 5.184,13.032 12.456,13.032 4.968,0 8.28,-1.8 11.736,-6.264 0,1.584 0,1.728 0.216,2.304 0.648,2.376 3.024,4.032 5.904,4.032 3.6,0 6.84,-1.872 10.368,-5.832 1.944,-2.232 3.528,-4.464 4.752,-6.552 l -2.808,-1.8 c -2.664,4.176 -6.264,8.064 -7.488,8.064 -0.504,0 -1.008,-0.576 -1.008,-1.152 0,-0.504 0,-0.504 0.72,-3.312 l 7.056,-23.904 -11.304,0 z m -7.704,2.88 c 2.664,0 4.464,2.16 4.464,5.256 0,3.6 -1.584,9.648 -3.744,14.256 -2.088,4.608 -4.68,6.984 -7.488,6.984 -2.664,0 -4.392,-2.232 -4.392,-5.688 0,-3.816 1.44,-9.576 3.528,-13.896 2.232,-4.68 4.68,-6.912 7.632,-6.912 z"
           style=""
           id="path4151" />
      </g>
    </g>
    <g
       id="g3531"
       transform="matrix(2.9886833,0,0,2.9886833,-612.55776,372.08235)">
      <g
         style="font-style:normal;font-variant:normal;font-weight:600;font-stretch:normal;font-size:32px;line-height:125%;font-family:'URW Gothic L';-inkscape-font-specification:'URW Gothic L Semi-Bold';letter-spacing:0px;word-spacing:0px;fill:#000000;fill-opacity:1;stroke:none"
         id="text2985-9">
        <path
           d="m 364.61661,96.215828 4.384,0 0,-9.056 6.208,9.056 5.408,0 -6.4,-8.736 c 1.824,-0.448 2.72,-0.864 3.744,-1.728 1.6,-1.376 2.432,-3.264 2.432,-5.6 0,-2.4 -0.864,-4.448 -2.496,-5.824 -1.536,-1.312 -3.232,-1.76 -6.464,-1.76 l -6.816,0 0,23.648 z m 4.384,-12.352 0,-7.104 1.952,0 c 2.048,0 3.168,0.224 3.872,0.832 0.768,0.608 1.152,1.536 1.152,2.688 0,2.496 -1.44,3.584 -4.832,3.584 l -2.144,0 z"
           style=""
           id="path4175" />
        <path
           d="m 383.17911,96.215828 4.384,0 0,-9.056 6.208,9.056 5.408,0 -6.4,-8.736 c 1.824,-0.448 2.72,-0.864 3.744,-1.728 1.6,-1.376 2.432,-3.264 2.432,-5.6 0,-2.4 -0.864,-4.448 -2.496,-5.824 -1.536,-1.312 -3.232,-1.76 -6.464,-1.76 l -6.816,0 0,23.648 z m 4.384,-12.352 0,-7.104 1.952,0 c 2.048,0 3.168,0.224 3.872,0.832 0.768,0.608 1.152,1.536 1.152,2.688 0,2.496 -1.44,3.584 -4.832,3.584 l -2.144,0 z"
           style=""
           id="path4177" />
        <path
           d="m 401.74161,96.215828 12.704,0 0,-4.192 -8.32,0 0,-5.504 7.968,0 0,-4.192 -7.968,0 0,-5.568 8.32,0 0,-4.192 -12.704,0 0,23.648 z"
           style=""
           id="path4179" />
        <path
           d="m 416.63861,89.463828 c 0.16,1.856 0.576,3.04 1.536,4.288 1.408,1.824 3.744,2.88 6.24,2.88 4.256,0 7.552,-3.296 7.552,-7.584 0,-1.952 -0.736,-3.648 -2.112,-4.928 -0.928,-0.864 -1.696,-1.28 -4,-2.144 -2.24,-0.832 -2.304,-0.864 -2.624,-1.056 -0.864,-0.544 -1.312,-1.28 -1.312,-2.144 0,-1.408 0.992,-2.4 2.432,-2.4 1.472,0 2.368,0.896 2.496,2.496 l 4.544,0 c -0.096,-1.792 -0.512,-3.008 -1.472,-4.192 -1.28,-1.6 -3.328,-2.528 -5.536,-2.528 -3.808,0 -6.88,2.976 -6.88,6.72 0,2.976 1.76,5.248 4.928,6.432 3.168,1.184 3.36,1.28 4.096,1.824 0.704,0.576 1.088,1.408 1.088,2.4 0,1.696 -1.312,2.88 -3.2,2.88 -1.952,0 -3.008,-0.96 -3.2,-2.944 l -4.576,0 z"
           style=""
           id="path4181" />
        <path
           d="m 437.42361,96.215828 4.384,0 0,-19.456 4.384,0 0,-4.192 -13.152,0 0,4.192 4.384,0 0,19.456 z"
           style=""
           id="path4183" />
        <path
           d="m 448.42911,96.215828 12.704,0 0,-4.192 -8.32,0 0,-5.504 7.968,0 0,-4.192 -7.968,0 0,-5.568 8.32,0 0,-4.192 -12.704,0 0,23.648 z"
           style=""
           id="path4185" />
        <path
           d="m 465.05411,96.215828 5.504,0 c 3.584,0 5.728,-0.352 7.648,-1.312 3.648,-1.792 5.792,-5.696 5.792,-10.464 0,-4.48 -1.856,-8.192 -5.152,-10.176 -1.856,-1.12 -4.672,-1.696 -8.384,-1.696 l -5.408,0 0,23.648 z m 4.384,-4.192 0,-15.264 0.864,0 c 2.784,0 4.288,0.256 5.664,0.96 2.24,1.152 3.616,3.68 3.616,6.72 0,2.848 -1.312,5.376 -3.424,6.528 -1.312,0.736 -3.136,1.056 -5.76,1.056 l -0.96,0 z"
           style=""
           id="path4187" />
      </g>
      <g
         style="font-style:normal;font-variant:normal;font-weight:600;font-stretch:normal;font-size:32px;line-height:125%;font-family:'URW Gothic L';-inkscape-font-specification:'URW Gothic L Semi-Bold';letter-spacing:0px;word-spacing:0px;fill:#000000;fill-opacity:1;stroke:none"
         id="text2989-9">
        <path
           d="m 373.26771,122.05489 5.504,0 c 3.584,0 5.728,-0.352 7.648,-1.312 3.648,-1.792 5.792,-5.696 5.792,-10.464 0,-4.48 -1.856,-8.192 -5.152,-10.176 -1.856,-1.119997 -4.672,-1.695997 -8.384,-1.695997 l -5.408,0 0,23.647997 z m 4.384,-4.192 0,-15.264 0.864,0 c 2.784,0 4.288,0.256 5.664,0.96 2.24,1.152 3.616,3.68 3.616,6.72 0,2.848 -1.312,5.376 -3.424,6.528 -1.312,0.736 -3.136,1.056 -5.76,1.056 l -0.96,0 z"
           style="font-style:normal;font-variant:normal;font-weight:600;font-stretch:normal;font-family:'URW Gothic L';-inkscape-font-specification:'URW Gothic L Semi-Bold'"
           id="path4154" />
        <path
           d="m 406.90671,97.990893 c -7.04,0 -12.48,5.343997 -12.48,12.255997 0,6.816 5.504,12.224 12.448,12.224 6.88,0 12.192,-5.344 12.192,-12.256 0,-6.752 -5.408,-12.223997 -12.16,-12.223997 z m -0.064,4.223997 c 4.384,0 7.808,3.52 7.808,8.064 0,4.544 -3.328,7.968 -7.808,7.968 -4.48,0 -8,-3.52 -8,-8 0,-4.576 3.456,-8.032 8,-8.032 z"
           style="font-style:normal;font-variant:normal;font-weight:600;font-stretch:normal;font-family:'URW Gothic L';-inkscape-font-specification:'URW Gothic L Semi-Bold'"
           id="path4156" />
        <path
           d="m 422.51771,122.05489 11.616,0 0,-4.192 -7.232,0 0,-19.455997 -4.384,0 0,23.647997 z"
           style="font-style:normal;font-variant:normal;font-weight:600;font-stretch:normal;font-family:'URW Gothic L';-inkscape-font-specification:'URW Gothic L Semi-Bold'"
           id="path4158" />
        <path
           d="m 436.58021,122.05489 12.704,0 0,-4.192 -8.32,0 0,-5.504 7.968,0 0,-4.192 -7.968,0 0,-5.568 8.32,0 0,-4.191997 -12.704,0 0,23.647997 z"
           style="font-style:normal;font-variant:normal;font-weight:600;font-stretch:normal;font-family:'URW Gothic L';-inkscape-font-specification:'URW Gothic L Semi-Bold'"
           id="path4160" />
        <path
           d="m 451.47721,115.30289 c 0.16,1.856 0.576,3.04 1.536,4.288 1.408,1.824 3.744,2.88 6.24,2.88 4.256,0 7.552,-3.296 7.552,-7.584 0,-1.952 -0.736,-3.648 -2.112,-4.928 -0.928,-0.864 -1.696,-1.28 -4,-2.144 -2.24,-0.832 -2.304,-0.864 -2.624,-1.056 -0.864,-0.544 -1.312,-1.28 -1.312,-2.144 0,-1.408 0.992,-2.4 2.432,-2.4 1.472,0 2.368,0.896 2.496,2.496 l 4.544,0 c -0.096,-1.792 -0.512,-3.008 -1.472,-4.192 -1.28,-1.599997 -3.328,-2.527997 -5.536,-2.527997 -3.808,0 -6.88,2.975997 -6.88,6.719997 0,2.976 1.76,5.248 4.928,6.432 3.168,1.184 3.36,1.28 4.096,1.824 0.704,0.576 1.088,1.408 1.088,2.4 0,1.696 -1.312,2.88 -3.2,2.88 -1.952,0 -3.008,-0.96 -3.2,-2.944 l -4.576,0 z"
           style="font-style:normal;font-variant:normal;font-weight:600;font-stretch:normal;font-family:'URW Gothic L';-inkscape-font-specification:'URW Gothic L Semi-Bold'"
           id="path4162" />
        <path
           d="m 486.82221,115.46289 c -1.92,2.016 -3.584,2.784 -5.856,2.784 -4.352,0 -7.936,-3.648 -7.936,-8.064 0,-1.92 0.736,-3.968 1.952,-5.376 1.44,-1.696 3.488,-2.592 5.888,-2.592 2.752,0 4.608,0.896 6.208,2.976 l 4.896,0 c -0.928,-2.048 -1.76,-3.168 -3.36,-4.48 -2.176,-1.759997 -4.96,-2.719997 -7.84,-2.719997 -6.688,0 -12.16,5.471997 -12.16,12.159997 0,6.816 5.536,12.32 12.448,12.32 4.832,0 9.056,-2.688 10.912,-7.008 l -5.152,0 z"
           style="font-style:normal;font-variant:normal;font-weight:600;font-stretch:normal;font-family:'URW Gothic L';-inkscape-font-specification:'URW Gothic L Semi-Bold'"
           id="path4164" />
        <path
           d="m 494.76771,122.05489 12.704,0 0,-4.192 -8.32,0 0,-5.504 7.968,0 0,-4.192 -7.968,0 0,-5.568 8.32,0 0,-4.191997 -12.704,0 0,23.647997 z"
           style="font-style:normal;font-variant:normal;font-weight:600;font-stretch:normal;font-family:'URW Gothic L';-inkscape-font-specification:'URW Gothic L Semi-Bold'"
           id="path4166" />
        <path
           d="m 511.39271,122.05489 4.384,0 0,-17.184 9.888,17.184 4.896,0 0,-23.647997 -4.384,0 0,17.215997 -9.792,-17.215997 -4.992,0 0,23.647997 z"
           style="font-style:normal;font-variant:normal;font-weight:600;font-stretch:normal;font-family:'URW Gothic L';-inkscape-font-specification:'URW Gothic L Semi-Bold'"
           id="path4168" />
        <path
           d="m 537.51221,122.05489 4.384,0 0,-19.456 4.384,0 0,-4.191997 -13.152,0 0,4.191997 4.384,0 0,19.456 z"
           style="font-style:normal;font-variant:normal;font-weight:600;font-stretch:normal;font-family:'URW Gothic L';-inkscape-font-specification:'URW Gothic L Semi-Bold'"
           id="path4170" />
        <path
           d="m 546.78971,115.30289 c 0.16,1.856 0.576,3.04 1.536,4.288 1.408,1.824 3.744,2.88 6.24,2.88 4.256,0 7.552,-3.296 7.552,-7.584 0,-1.952 -0.736,-3.648 -2.112,-4.928 -0.928,-0.864 -1.696,-1.28 -4,-2.144 -2.24,-0.832 -2.304,-0.864 -2.624,-1.056 -0.864,-0.544 -1.312,-1.28 -1.312,-2.144 0,-1.408 0.992,-2.4 2.432,-2.4 1.472,0 2.368,0.896 2.496,2.496 l 4.544,0 c -0.096,-1.792 -0.512,-3.008 -1.472,-4.192 -1.28,-1.599997 -3.328,-2.527997 -5.536,-2.527997 -3.808,0 -6.88,2.975997 -6.88,6.719997 0,2.976 1.76,5.248 4.928,6.432 3.168,1.184 3.36,1.28 4.096,1.824 0.704,0.576 1.088,1.408 1.088,2.4 0,1.696 -1.312,2.88 -3.2,2.88 -1.952,0 -3.008,-0.96 -3.2,-2.944 l -4.576,0 z"
           style="font-style:normal;font-variant:normal;font-weight:600;font-stretch:normal;font-family:'URW Gothic L';-inkscape-font-specification:'URW Gothic L Semi-Bold'"
           id="path4172" />
      </g>
      <g
         style="font-style:italic;font-variant:normal;font-weight:bold;font-stretch:normal;font-size:50px;line-height:125%;font-family:'Century Schoolbook L';-inkscape-font-specification:'Century Schoolbook L Bold Italic';letter-spacing:0px;word-spacing:0px;fill:#000000;fill-opacity:1;stroke:none"
         id="text3504">
        <path
           d="m 354.21393,72.610852 -0.7,2.4 c -1.2,-2.1 -3.3,-3.15 -6.25,-3.15 -7.4,0 -14.3,7.5 -14.3,15.6 0,5.3 3.6,9.05 8.65,9.05 3.45,0 5.75,-1.25 8.15,-4.35 0,1.1 0,1.2 0.15,1.6 0.45,1.65 2.1,2.8 4.1,2.8 2.5,0 4.75,-1.3 7.2,-4.05 1.35,-1.55 2.45,-3.1 3.3,-4.55 l -1.95,-1.25 c -1.85,2.9 -4.35,5.6 -5.2,5.6 -0.35,0 -0.7,-0.4 -0.7,-0.8 0,-0.35 0,-0.35 0.5,-2.3 l 4.9,-16.6 -7.85,0 z m -5.35,2 c 1.85,0 3.1,1.5 3.1,3.65 0,2.5 -1.1,6.7 -2.6,9.9 -1.45,3.2 -3.25,4.85 -5.2,4.85 -1.85,0 -3.05,-1.55 -3.05,-3.95 0,-2.65 1,-6.65 2.45,-9.65 1.55,-3.25 3.25,-4.8 5.3,-4.8 z"
           style=""
           id="path4193" />
      </g>
      <g
         style="font-style:italic;font-variant:normal;font-weight:bold;font-stretch:normal;font-size:50px;line-height:125%;font-family:'Century Schoolbook L';-inkscape-font-specification:'Century Schoolbook L Bold Italic';letter-spacing:0px;word-spacing:0px;fill:#000000;fill-opacity:1;stroke:none"
         id="text3504-2">
        <path
           d="m 362.84106,98.931813 -0.7,2.399997 c -1.2,-2.099997 -3.3,-3.149997 -6.25,-3.149997 -7.4,0 -14.3,7.499997 -14.3,15.599997 0,5.3 3.6,9.05 8.65,9.05 3.45,0 5.75,-1.25 8.15,-4.35 0,1.1 0,1.2 0.15,1.6 0.45,1.65 2.1,2.8 4.1,2.8 2.5,0 4.75,-1.3 7.2,-4.05 1.35,-1.55 2.45,-3.1 3.3,-4.55 l -1.95,-1.25 c -1.85,2.9 -4.35,5.6 -5.2,5.6 -0.35,0 -0.7,-0.4 -0.7,-0.8 0,-0.35 0,-0.35 0.5,-2.3 l 4.9,-16.599997 -7.85,0 z m -5.35,1.999997 c 1.85,0 3.1,1.5 3.1,3.65 0,2.5 -1.1,6.7 -2.6,9.9 -1.45,3.2 -3.25,4.85 -5.2,4.85 -1.85,0 -3.05,-1.55 -3.05,-3.95 0,-2.65 1,-6.65 2.45,-9.65 1.55,-3.25 3.25,-4.8 5.3,-4.8 z"
           style=""
           id="path4190" />
      </g>
    </g>
  </g>
</svg>
